<svg id="Layer_1" data-name="Layer 1" xmlns="http://www.w3.org/2000/svg" xmlns:xlink="http://www.w3.org/1999/xlink" viewBox="0 0 1920 1080"><defs><style>.cls-1,.cls-9{fill:#daa629;}.cls-1{filter:url(#filter);}.cls-2{fill:#e7b93b;filter:url(#filter-2);}.cls-3{fill:#c9861b;filter:url(#filter-3);}.cls-4{fill:#d69c28;filter:url(#filter-4);}.cls-5{fill:#3d6689;filter:url(#filter-5);}.cls-6{fill:#4b7aa3;filter:url(#filter-6);}.cls-7{fill:#90b0da;filter:url(#filter-7);}.cls-10,.cls-8{fill:#679ed3;}.cls-8{filter:url(#filter-8);}</style><filter id="filter" x="1188.24" y="474.41" width="373.44" height="349.2" filterUnits="userSpaceOnUse"><feOffset dx="-2.31" dy="1.16" input="SourceAlpha"/><feGaussianBlur stdDeviation="5.78" result="blur"/><feFlood/><feComposite operator="in" in2="blur"/><feComposite in="SourceGraphic"/></filter><filter id="filter-2" x="912.24" y="495.05" width="365.04" height="319.44" filterUnits="userSpaceOnUse"><feOffset dx="-2.31" dy="1.16" input="SourceAlpha"/><feGaussianBlur stdDeviation="5.78" result="blur-2"/><feFlood/><feComposite operator="in" in2="blur-2"/><feComposite in="SourceGraphic"/></filter><filter id="filter-3" x="942.96" y="262.01" width="286.08" height="288.96" filterUnits="userSpaceOnUse"><feOffset dx="-2.31" dy="1.16" input="SourceAlpha"/><feGaussianBlur stdDeviation="5.78" result="blur-3"/><feFlood/><feComposite operator="in" in2="blur-3"/><feComposite in="SourceGraphic"/></filter><filter id="filter-4" x="1148.6" y="253.58" width="404.16" height="287.04" filterUnits="userSpaceOnUse"><feOffset dx="-2.31" dy="1.16" input="SourceAlpha"/><feGaussianBlur stdDeviation="2.83" result="blur-4"/><feFlood/><feComposite operator="in" in2="blur-4"/><feComposite in="SourceGraphic"/></filter><filter id="filter-5" x="697.44" y="261.53" width="324.24" height="325.92" filterUnits="userSpaceOnUse"><feOffset dx="-2.31" dy="1.16" input="SourceAlpha"/><feGaussianBlur stdDeviation="5.78" result="blur-5"/><feFlood/><feComposite operator="in" in2="blur-5"/><feComposite in="SourceGraphic"/></filter><filter id="filter-6" x="362.88" y="244.73" width="419.52" height="305.28" filterUnits="userSpaceOnUse"><feOffset dx="-2.31" dy="1.16" input="SourceAlpha"/><feGaussianBlur stdDeviation="5.78" result="blur-6"/><feFlood/><feComposite operator="in" in2="blur-6"/><feComposite in="SourceGraphic"/></filter><filter id="filter-7" x="648.72" y="518.09" width="332.16" height="295.92" filterUnits="userSpaceOnUse"><feOffset dx="-2.31" dy="1.16" input="SourceAlpha"/><feGaussianBlur stdDeviation="5.78" result="blur-7"/><feFlood/><feComposite operator="in" in2="blur-7"/><feComposite in="SourceGraphic"/></filter><filter id="filter-8" x="362.88" y="474.41" width="374.16" height="349.2" filterUnits="userSpaceOnUse"><feOffset dx="-2.31" dy="1.16" input="SourceAlpha"/><feGaussianBlur stdDeviation="5.78" result="blur-8"/><feFlood/><feComposite operator="in" in2="blur-8"/><feComposite in="SourceGraphic"/></filter></defs><path class="cls-1" d="M1499.26,490.8l-47.8,40.05c.07.71.07,1.42.07,2.13a151.21,151.21,0,0,1-.79,16c-8.06,90.23-84.07,161.11-176.35,161.11a162.83,162.83,0,0,1-36.9-4.35l24.56,56-54,34.2a268.73,268.73,0,0,0,47.33,8.22c6.32.55,12.64.79,19,.79,145,0,263.74-114,271.57-257,.23-5,.39-9.95.39-14.93v-2.53Z"/><path class="cls-2" d="M1237.49,705.7a175.24,175.24,0,0,1-17-4.89c-42.27-14.38-79.88-43.46-112.83-72.86-32.08-28.52-59.34-61.55-85.42-95.68-5.37-6.88-10.59-13.91-15.8-20.86l-20.62,49.94L932,568.54c11.14,14.77,22.28,29.55,33.66,44,4.34,5.61,8.77,11.14,13.27,16.67,55.87,68.27,127,133.85,212.08,161.66q8.42,2.85,17.06,5l54-34.2Z"/><path class="cls-3" d="M1172.06,329l41.64,39.34c-78.38,30.74-152,111.41-191.45,164-5.37-6.88-10.59-13.91-15.8-20.86-3.56-4.74-7.11-9.48-10.75-14.22-10.82-14.54-21.73-29.08-32.87-43.38l1.66-1.34c45.2-55.71,124.53-138.67,219.66-174.23Z"/><path class="cls-4" d="M1274.39,261a246.81,246.81,0,0,0-73,11.38c-5.77,1.74-11.54,3.72-17.23,5.85L1159.59,339l54.11,29.36c5.46-2.13,10.91-4,16.36-5.6a154,154,0,0,1,44.33-6.88c96.95,0,176,78.3,177.07,175l47.8-27.58,47.09,27.18C1545,381.67,1423.48,261,1274.39,261Z"/><path class="cls-5" d="M995.7,497.19c-10.82-14.54-21.73-29.08-32.87-43.38-10.74-13.59-21.65-27-33.1-39.9-50-56.26-112-109.91-183.55-136.14L758.43,329l-41.17,38.95c48.51,18.33,90.94,55.39,126,91.81,22.67,23.55,43.14,48.91,63,74.75,5.06,6.64,10.11,13.28,15.09,19.91h.08c3.48,4.66,7,9.41,10.59,14.15l62.54.29,11.89-57.42C1002.89,506.67,999.34,501.93,995.7,497.19Z"/><path class="cls-6" d="M746.18,277.77c-5.61-2.06-11.3-4-17.07-5.61A256.78,256.78,0,0,0,654.68,261c-149.42,0-271,121.05-272,270.23l48.52-28,46.38,26.79c1.5-96.32,80.36-174.23,177.07-174.23a168.85,168.85,0,0,1,46.06,6.56c5.61,1.58,11.07,3.4,16.52,5.53l49.9-31.47Z"/><path class="cls-7" d="M932,568.54c-3.56-4.74-7.11-9.49-10.59-14.15h-.08c-5-6.63-10-13.27-15.09-19.91-40.45,53.65-116.15,136-196,165.06-5.69,2-11.38,3.79-17.07,5.3l-24.8,51.83,53.32,38.56c5.61-1.58,11.22-3.32,16.75-5.3,97.82-34,179.76-119.39,226-176.43l1.19-1C954.3,598.09,943.16,583.31,932,568.54Z"/><path class="cls-8" d="M670.93,756.67l22.31-51.83a151.32,151.32,0,0,1-38.56,5.21c-92.6,0-168.85-71.35-176.44-162-.47-5-.71-10-.71-15.09,0-1,0-2,.08-2.92L431.23,490.8l-48.52,40.44V533c0,5.29.16,10.51.48,15.72C391.33,691.32,510,804.87,654.68,804.87a245.52,245.52,0,0,0,67.08-9.64Z"/><path class="cls-9" d="M1560.2,676.29c-.23-.11-.46-.22-.88-.38l-.77-.39-.69,0a23.21,23.21,0,0,0-5.89-.72,17.36,17.36,0,0,0-3.89.54c-.94.24-1.81.52-2.66.79l-1.11.36-.55,1c-80.59,139.5-220.11,157.52-276.36,158.79a230,230,0,0,1-29.21-.93c-111.15-9.45-230.28-110.67-231.47-111.7l-1.2-1-1.58.38c-3,.73-9.86,2.92-9.47,7.33.12,5.94,76.87,84.11,171.28,123a319.39,319.39,0,0,0,119.45,20h0c131.69-3,243-80.76,276.85-193.59l.31-2.35Z"/><path class="cls-10" d="M359.8,403.71c.23.11.46.22.88.38l.77.39.69,0a23.21,23.21,0,0,0,5.89.72,17.36,17.36,0,0,0,3.89-.54c.94-.24,1.81-.52,2.66-.79l1.11-.36.55-1C456.83,263.1,596.35,245.08,652.6,243.81a230,230,0,0,1,29.21.93C793,254.19,912.09,355.41,913.28,356.44l1.2,1,1.58-.38c3-.73,9.86-2.92,9.47-7.33-.12-5.94-76.87-84.11-171.28-123a319.39,319.39,0,0,0-119.45-20h0c-131.69,3-242.95,80.76-276.85,193.59l-.31,2.35Z"/></svg>