<svg id="Layer_1" data-name="Layer 1" xmlns="http://www.w3.org/2000/svg" xmlns:xlink="http://www.w3.org/1999/xlink" viewBox="0 0 963.78 963.78"><defs><style>.cls-1{fill:#fff;}.cls-10,.cls-2{fill:#daa629;}.cls-2{filter:url(#filter);}.cls-3{fill:#e7b93b;filter:url(#filter-2);}.cls-4{fill:#c9861b;filter:url(#filter-3);}.cls-5{fill:#d69c28;filter:url(#filter-4);}.cls-6{fill:#3d6689;filter:url(#filter-5);}.cls-7{fill:#4b7aa3;filter:url(#filter-6);}.cls-8{fill:#90b0da;filter:url(#filter-7);}.cls-11,.cls-9{fill:#679ed3;}.cls-9{filter:url(#filter-8);}</style><filter id="filter" x="613.03" y="435.65" width="240.72" height="226.08" filterUnits="userSpaceOnUse"><feOffset dx="-2.31" dy="1.16" input="SourceAlpha"/><feGaussianBlur stdDeviation="5.78" result="blur"/><feFlood/><feComposite operator="in" in2="blur"/><feComposite in="SourceGraphic"/></filter><filter id="filter-2" x="445.03" y="448.13" width="235.68" height="208.08" filterUnits="userSpaceOnUse"><feOffset dx="-2.31" dy="1.16" input="SourceAlpha"/><feGaussianBlur stdDeviation="5.78" result="blur-2"/><feFlood/><feComposite operator="in" in2="blur-2"/><feComposite in="SourceGraphic"/></filter><filter id="filter-3" x="463.75" y="306.29" width="187.68" height="189.6" filterUnits="userSpaceOnUse"><feOffset dx="-2.31" dy="1.16" input="SourceAlpha"/><feGaussianBlur stdDeviation="5.78" result="blur-3"/><feFlood/><feComposite operator="in" in2="blur-3"/><feComposite in="SourceGraphic"/></filter><filter id="filter-4" x="592.36" y="304.81" width="252.48" height="181.44" filterUnits="userSpaceOnUse"><feOffset dx="-2.31" dy="1.16" input="SourceAlpha"/><feGaussianBlur stdDeviation="2.83" result="blur-4"/><feFlood/><feComposite operator="in" in2="blur-4"/><feComposite in="SourceGraphic"/></filter><filter id="filter-5" x="314.47" y="306.05" width="210.96" height="212.16" filterUnits="userSpaceOnUse"><feOffset dx="-2.31" dy="1.16" input="SourceAlpha"/><feGaussianBlur stdDeviation="5.78" result="blur-5"/><feFlood/><feComposite operator="in" in2="blur-5"/><feComposite in="SourceGraphic"/></filter><filter id="filter-6" x="110.95" y="295.97" width="269.04" height="199.44" filterUnits="userSpaceOnUse"><feOffset dx="-2.31" dy="1.16" input="SourceAlpha"/><feGaussianBlur stdDeviation="5.78" result="blur-6"/><feFlood/><feComposite operator="in" in2="blur-6"/><feComposite in="SourceGraphic"/></filter><filter id="filter-7" x="284.71" y="462.29" width="216" height="193.44" filterUnits="userSpaceOnUse"><feOffset dx="-2.31" dy="1.16" input="SourceAlpha"/><feGaussianBlur stdDeviation="5.78" result="blur-7"/><feFlood/><feComposite operator="in" in2="blur-7"/><feComposite in="SourceGraphic"/></filter><filter id="filter-8" x="110.95" y="435.65" width="241.44" height="226.08" filterUnits="userSpaceOnUse"><feOffset dx="-2.31" dy="1.16" input="SourceAlpha"/><feGaussianBlur stdDeviation="5.78" result="blur-8"/><feFlood/><feComposite operator="in" in2="blur-8"/><feComposite in="SourceGraphic"/></filter></defs><circle class="cls-1" cx="481.89" cy="481.89" r="461.42"/><path class="cls-2" d="M809.81,452l-29.07,24.35a11.39,11.39,0,0,1,0,1.3,92.17,92.17,0,0,1-.49,9.71,107.77,107.77,0,0,1-107.24,98,99.24,99.24,0,0,1-22.43-2.65l14.93,34-32.81,20.79a163.23,163.23,0,0,0,28.78,5c3.85.34,7.69.48,11.53.48,88.17,0,160.39-69.33,165.14-156.25.15-3,.24-6.05.24-9.08v-1.54Z"/><path class="cls-3" d="M650.63,582.65a102,102,0,0,1-10.33-3c-25.71-8.74-48.58-26.42-68.62-44.3C552.18,518,535.6,498,519.74,477.19c-3.26-4.18-6.43-8.46-9.6-12.69l-12.55,30.37-32.72,4.37c6.78,9,13.55,18,20.47,26.76,2.65,3.42,5.34,6.78,8.07,10.14,34,41.52,77.22,81.39,129,98.31,3.42,1.15,6.87,2.16,10.38,3l32.81-20.79Z"/><path class="cls-4" d="M610.84,353.56l25.32,23.93c-47.66,18.69-92.44,67.75-116.42,99.7-3.26-4.18-6.43-8.46-9.6-12.69-2.17-2.88-4.33-5.76-6.54-8.64-6.58-8.85-13.21-17.69-20-26.38l1-.82c27.49-33.87,75.72-84.32,133.57-105.94Z"/><path class="cls-5" d="M673.06,312.24a150.11,150.11,0,0,0-44.39,6.92c-3.51,1.06-7,2.26-10.48,3.56l-14.93,36.91,32.9,17.86c3.32-1.3,6.63-2.45,10-3.41a93.75,93.75,0,0,1,26.95-4.18A107.8,107.8,0,0,1,780.74,476.32l29.07-16.76,28.63,16.52C837.63,385.61,763.73,312.24,673.06,312.24Z"/><path class="cls-6" d="M503.6,455.86c-6.58-8.85-13.21-17.69-20-26.38-6.53-8.27-13.16-16.43-20.13-24.27-30.41-34.21-68.13-66.83-111.61-82.78l7.44,31.13-25,23.69c29.5,11.15,55.3,33.68,76.59,55.83,13.79,14.32,26.23,29.74,38.34,45.45q4.62,6.06,9.18,12.11h.05c2.11,2.84,4.27,5.72,6.43,8.6l38,.18,7.24-34.92C508,461.62,505.81,458.74,503.6,455.86Z"/><path class="cls-7" d="M351.87,322.43c-3.41-1.25-6.87-2.4-10.38-3.41a155.91,155.91,0,0,0-45.26-6.78c-90.86,0-164.8,73.61-165.38,164.32l29.5-17,28.2,16.28A107.8,107.8,0,0,1,296.23,369.9a102.59,102.59,0,0,1,28,4,105.57,105.57,0,0,1,10,3.36l30.34-19.14Z"/><path class="cls-8" d="M464.87,499.24c-2.16-2.88-4.32-5.76-6.43-8.6h-.05q-4.54-6-9.18-12.11c-24.6,32.63-70.63,82.69-119.16,100.37-3.46,1.21-6.91,2.31-10.37,3.22L304.6,613.64,337,637.09c3.41-1,6.82-2,10.19-3.22,59.48-20.71,109.3-72.6,137.41-107.29l.72-.58C478.42,517.21,471.65,508.23,464.87,499.24Z"/><path class="cls-9" d="M306.11,613.64l13.57-31.52a91.74,91.74,0,0,1-23.45,3.18,107.75,107.75,0,0,1-107.29-98.5c-.29-3-.43-6.1-.43-9.18,0-.58,0-1.2,0-1.78L160.35,452l-29.5,24.59v1.06c0,3.22.1,6.39.29,9.56,5,86.73,77.11,155.77,165.09,155.77A149.12,149.12,0,0,0,337,637.09Z"/><path class="cls-10" d="M846.86,564.77c-.14-.07-.28-.14-.53-.24l-.47-.23-.42,0a13.94,13.94,0,0,0-3.58-.44,10.18,10.18,0,0,0-2.37.33c-.57.15-1.1.31-1.62.48l-.67.22-.34.58c-49,84.83-133.84,95.79-168,96.56a137.43,137.43,0,0,1-17.77-.57c-67.58-5.74-140-67.3-140.75-67.92l-.73-.62-1,.23c-1.81.45-6,1.78-5.76,4.46.08,3.61,46.74,51.15,104.15,74.82a194.22,194.22,0,0,0,72.64,12.14h0c80.07-1.8,147.73-49.1,168.34-117.71l.19-1.43Z"/><path class="cls-11" d="M116.92,399l.53.24.47.23.42,0a13.94,13.94,0,0,0,3.58.44,10.74,10.74,0,0,0,2.37-.33c.57-.15,1.09-.31,1.62-.48l.67-.22.33-.58c49-84.83,133.85-95.79,168-96.56a137.43,137.43,0,0,1,17.77.57c67.58,5.74,140,67.29,140.75,67.92l.73.62,1-.23c1.81-.45,6-1.78,5.76-4.46-.08-3.61-46.74-51.15-104.15-74.82a194.22,194.22,0,0,0-72.64-12.14h0C204.06,281,136.4,328.34,115.79,397l-.19,1.43Z"/></svg>