<?xml version="1.0" encoding="UTF-8"?><svg id="Layer_1" xmlns="http://www.w3.org/2000/svg" viewBox="0 0 963.78 283.46"><defs><style>.cls-1{fill:#679ed3;}.cls-2{fill:#daa629;}.cls-3{fill:#c9861b;}.cls-4{fill:#e7b93b;}.cls-5{fill:#d69c28;}</style></defs><path class="cls-1" d="M27.24,102.48c0-8.4,1.74-16.17,5.23-23.32,3.48-7.14,8.21-13.31,14.2-18.49,5.98-5.18,12.95-9.29,20.9-12.33,7.95-3.04,16.39-4.55,25.32-4.55,13.94,0,26.04,2.46,36.31,7.37,10.27,4.92,18,10.59,23.18,17.02,1.25,1.61,1.16,3.04-.27,4.29l-18.49,19.3c-.72,.72-1.57,1.07-2.55,1.07s-1.84-.44-2.55-1.34c-1.61-1.78-3.62-3.57-6.03-5.36-2.41-1.78-5.18-3.44-8.31-4.96-3.13-1.52-6.48-2.72-10.05-3.62-3.58-.89-7.24-1.34-10.99-1.34-4.47,0-8.53,.67-12.19,2.01-3.66,1.34-6.75,3.08-9.25,5.23-2.5,2.14-4.47,4.65-5.9,7.5-1.43,2.86-2.14,5.9-2.14,9.11,0,5.19,1.7,9.65,5.09,13.4,3.39,3.75,8.48,6.35,15.27,7.77l26.26,5.09c8.58,1.61,16.12,4.15,22.65,7.64,6.52,3.49,11.97,7.64,16.35,12.46,4.38,4.82,7.73,10.23,10.05,16.21,2.32,5.99,3.49,12.29,3.49,18.9,0,7.15-1.47,14.2-4.42,21.17-2.95,6.97-7.33,13.22-13.13,18.76-5.81,5.54-12.91,9.96-21.31,13.26-8.4,3.31-18.05,4.96-28.94,4.96-7.69,0-14.87-.8-21.57-2.41-6.7-1.61-12.78-3.71-18.22-6.3-5.45-2.59-10.23-5.45-14.34-8.58-4.11-3.13-7.5-6.21-10.18-9.25-1.25-1.25-1.25-2.68,0-4.29l16.88-21.71c.54-.89,1.3-1.38,2.28-1.47,.98-.09,1.83,.23,2.55,.94,2.5,2.32,5.27,4.69,8.31,7.1,3.04,2.41,6.34,4.6,9.92,6.57,3.57,1.97,7.41,3.58,11.52,4.82,4.11,1.25,8.48,1.88,13.13,1.88,9.82,0,17.33-2.15,22.51-6.43,5.18-4.29,7.77-9.82,7.77-16.62,0-5.36-1.92-10.05-5.76-14.07-3.84-4.02-9.51-6.74-17.02-8.17l-26.26-5.36c-15.01-3.04-26.98-9.2-35.91-18.49-8.94-9.29-13.4-21.08-13.4-35.37Z"/><path class="cls-4" d="M224.49,75.16v-24.41c0-2.15-1.16-3.22-3.48-3.22h-27.61c-.9,0-1.65,.31-2.28,.94-.63,.63-.94,1.39-.94,2.28v16.52c10.16,1.73,32.93,7.44,34.3,7.88Z"/><path class="cls-1" d="M217.06,78.48c-8.84-2.49-17.84-4.27-26.88-5.83V231.92c0,.89,.31,1.65,.94,2.28,.62,.63,1.38,.94,2.28,.94h27.61c2.32,0,3.48-1.07,3.48-3.21V80.76c-2.48-.82-4.96-1.58-7.42-2.28Z"/><path class="cls-1" d="M448.66,133.29c-.27-2.86-.67-5.8-1.21-8.84h-35.46c-7.04,11.3-14.4,22.42-21.36,33.77h21.17c-1.79,6.79-4.56,13.09-8.31,18.9-3.75,5.81-8.27,10.85-13.53,15.14-5.27,4.29-11.08,7.69-17.42,10.18-6.34,2.5-13,3.84-19.96,4.02-8.58,0-16.62-1.7-24.12-5.09-7.5-3.39-14.11-8.04-19.83-13.94-5.72-5.9-10.28-12.77-13.67-20.64-3.4-7.86-5.09-16.17-5.09-24.92s1.61-17.37,4.82-25.33c3.21-7.95,7.59-14.87,13.13-20.77,5.53-5.9,12.06-10.63,19.56-14.21,7.5-3.57,15.45-5.36,23.85-5.36,9.11-.18,17.69,1.7,25.73,5.63,8.04,3.93,14.92,9.2,20.64,15.81,.71,.89,1.56,1.3,2.54,1.21,.98-.09,1.74-.58,2.28-1.47l17.15-22.24c1.25-1.43,1.16-2.86-.27-4.29-8.58-8.4-18.58-14.96-30.02-19.7-11.44-4.73-23.68-7.19-36.71-7.37-13.58-.18-26.26,2.19-38.06,7.1-11.79,4.92-22.02,11.7-30.69,20.37-8.67,8.67-15.55,18.94-20.63,30.82-5.09,11.88-7.64,24.7-7.64,38.46s2.41,26.62,7.24,38.59c4.82,11.97,11.52,22.38,20.1,31.22,8.58,8.84,18.71,15.81,30.42,20.9,11.7,5.09,24.25,7.64,37.65,7.64s26.26-2.46,38.06-7.37c11.79-4.91,22.11-11.75,30.96-20.5,8.84-8.75,15.81-19.03,20.9-30.82,5.09-11.79,7.72-24.48,7.9-38.06,.18-3.04,.14-5.98-.13-8.85Z"/><path class="cls-3" d="M383.94,124.45c-3.75,0-6.79,1.61-9.11,4.82l-17.15,25.19c-.54,.9-.58,1.74-.13,2.55,.44,.8,1.11,1.2,2.01,1.2h24.83c6.88-11.39,14.26-22.5,21.34-33.77h-21.79Z"/><path class="cls-1" d="M598.87,201.1h-84.69v-42.61h67c2.14,0,3.21-1.16,3.21-3.48v-27.33c0-2.15-1.07-3.22-3.21-3.22h-67v-42.88h32.95c2.6-3.8,5.17-7.63,7.74-11.45,4.94-7.33,9.76-14.79,13.96-22.59h-85.73c-.89,0-1.65,.31-2.28,.94-.63,.63-.94,1.39-.94,2.28V231.92c0,.89,.31,1.65,.94,2.28,.62,.63,1.38,.94,2.28,.94h115.77c2.15,0,3.22-1.07,3.22-3.21v-27.61c0-.89-.31-1.65-.94-2.28-.63-.62-1.39-.94-2.28-.94Z"/><path class="cls-2" d="M622.61,48.74c-.45-.8-1.2-1.21-2.28-1.21h-45.55c-3.97,7.71-18.61,30.15-21.26,34.04h40.01c3.57,0,6.52-1.43,8.85-4.29l19.83-26c.71-.89,.85-1.74,.4-2.55Z"/><path class="cls-5" d="M643.08,102.48c0-8.4,1.74-16.17,5.23-23.32,3.48-7.14,8.21-13.31,14.2-18.49,5.98-5.18,12.95-9.29,20.9-12.33,7.95-3.04,16.39-4.55,25.32-4.55,13.94,0,26.04,2.46,36.31,7.37,10.27,4.92,18,10.59,23.18,17.02,1.25,1.61,1.16,3.04-.27,4.29l-18.49,19.3c-.72,.72-1.57,1.07-2.55,1.07s-1.84-.44-2.55-1.34c-1.61-1.78-3.62-3.57-6.03-5.36-2.41-1.78-5.18-3.44-8.31-4.96-3.13-1.52-6.48-2.72-10.05-3.62-3.58-.89-7.24-1.34-10.99-1.34-4.47,0-8.53,.67-12.19,2.01-3.66,1.34-6.75,3.08-9.25,5.23-2.5,2.14-4.47,4.65-5.9,7.5-1.43,2.86-2.14,5.9-2.14,9.11,0,5.19,1.7,9.65,5.09,13.4,3.39,3.75,8.48,6.35,15.27,7.77l26.26,5.09c8.57,1.61,16.12,4.15,22.65,7.64,6.52,3.49,11.97,7.64,16.35,12.46,4.38,4.82,7.73,10.23,10.05,16.21,2.32,5.99,3.49,12.29,3.49,18.9,0,7.15-1.47,14.2-4.42,21.17-2.95,6.97-7.33,13.22-13.13,18.76-5.81,5.54-12.91,9.96-21.31,13.26-8.4,3.31-18.05,4.96-28.94,4.96-7.69,0-14.87-.8-21.57-2.41-6.7-1.61-12.78-3.71-18.22-6.3-5.45-2.59-10.23-5.45-14.34-8.58-4.11-3.13-7.5-6.21-10.18-9.25-1.25-1.25-1.25-2.68,0-4.29l16.88-21.71c.54-.89,1.3-1.38,2.28-1.47,.98-.09,1.83,.23,2.55,.94,2.5,2.32,5.27,4.69,8.31,7.1,3.04,2.41,6.34,4.6,9.92,6.57,3.57,1.97,7.41,3.58,11.52,4.82,4.11,1.25,8.48,1.88,13.13,1.88,9.82,0,17.33-2.15,22.51-6.43,5.18-4.29,7.77-9.82,7.77-16.62,0-5.36-1.92-10.05-5.76-14.07-3.84-4.02-9.51-6.74-17.02-8.17l-26.26-5.36c-15.01-3.04-26.98-9.2-35.91-18.49-8.94-9.29-13.4-21.08-13.4-35.37Z"/><path class="cls-3" d="M800.93,102.48c0-8.4,1.74-16.17,5.23-23.32,3.48-7.14,8.21-13.31,14.2-18.49,5.98-5.18,12.95-9.29,20.9-12.33,7.95-3.04,16.39-4.55,25.32-4.55,13.94,0,26.04,2.46,36.31,7.37,10.27,4.92,18,10.59,23.18,17.02,1.25,1.61,1.16,3.04-.27,4.29l-18.49,19.3c-.72,.72-1.57,1.07-2.55,1.07s-1.84-.44-2.55-1.34c-1.61-1.78-3.62-3.57-6.03-5.36-2.41-1.78-5.18-3.44-8.31-4.96-3.13-1.52-6.48-2.72-10.05-3.62-3.58-.89-7.24-1.34-10.99-1.34-4.47,0-8.53,.67-12.19,2.01-3.66,1.34-6.75,3.08-9.25,5.23-2.5,2.14-4.47,4.65-5.9,7.5-1.43,2.86-2.14,5.9-2.14,9.11,0,5.19,1.7,9.65,5.09,13.4,3.39,3.75,8.48,6.35,15.27,7.77l26.26,5.09c8.58,1.61,16.12,4.15,22.65,7.64,6.52,3.49,11.97,7.64,16.35,12.46,4.38,4.82,7.73,10.23,10.05,16.21,2.32,5.99,3.49,12.29,3.49,18.9,0,7.15-1.47,14.2-4.42,21.17-2.95,6.97-7.33,13.22-13.13,18.76-5.81,5.54-12.91,9.96-21.31,13.26-8.4,3.31-18.05,4.96-28.94,4.96-7.69,0-14.87-.8-21.57-2.41-6.7-1.61-12.78-3.71-18.22-6.3-5.45-2.59-10.23-5.45-14.34-8.58-4.11-3.13-7.5-6.21-10.18-9.25-1.25-1.25-1.25-2.68,0-4.29l16.88-21.71c.54-.89,1.3-1.38,2.28-1.47,.98-.09,1.83,.23,2.55,.94,2.5,2.32,5.27,4.69,8.31,7.1,3.04,2.41,6.34,4.6,9.92,6.57,3.57,1.97,7.41,3.58,11.52,4.82,4.11,1.25,8.48,1.88,13.13,1.88,9.82,0,17.33-2.15,22.51-6.43,5.18-4.29,7.77-9.82,7.77-16.62,0-5.36-1.92-10.05-5.76-14.07-3.84-4.02-9.51-6.74-17.02-8.17l-26.26-5.36c-15.01-3.04-26.98-9.2-35.91-18.49-8.94-9.29-13.4-21.08-13.4-35.37Z"/></svg>